<svg width="891" height="705" viewBox="0 0 891 705" fill="none" xmlns="http://www.w3.org/2000/svg">
<g id="Frame 1">
<rect width="891" height="705" fill="white"/>
<g id="Group 2">
<g id="Group 1">
<path id="Path 133" d="M140.077 490.933C146.338 501.202 153.965 510.507 162.734 518.574C162.934 518.763 163.14 518.944 163.345 519.13L182.068 507.616C181.929 507.421 181.776 507.203 181.612 506.964C171.837 492.878 127.689 399.168 127.419 378.416C127.385 380.134 111.531 444.63 140.077 490.933Z" fill="#E6E6E6"/>
<path id="Path 134" d="M159.121 520.795C159.41 520.93 159.706 521.061 160.003 521.185L174.049 512.548C173.829 512.416 173.574 512.261 173.28 512.088C168.472 509.181 154.165 500.445 140.078 490.932C124.942 480.707 110.053 469.59 107.469 463.841C108.006 465.165 124.672 505.367 159.121 520.795Z" fill="#E6E6E6"/>
</g>
<path id="Path 133_2" d="M752.475 528.71C752.161 540.849 750.196 552.881 746.639 564.451C746.56 564.72 746.472 564.984 746.387 565.253H724.609C724.632 565.012 724.656 564.744 724.679 564.451C726.131 547.174 717.835 443.271 707.825 425.289C708.702 426.747 754.163 473.812 752.475 528.71Z" fill="#E6E6E6"/>
<path id="Path 134_2" d="M750.841 564.451C750.658 564.72 750.469 564.989 750.275 565.253H733.937C734.061 565.024 734.204 564.756 734.371 564.451C737.069 559.41 745.058 544.337 752.473 528.71C760.439 511.918 767.753 494.488 767.137 488.18C767.328 489.602 772.842 532.975 750.841 564.451Z" fill="#E6E6E6"/>
<path id="Vector" d="M431.38 564.626H179.534C173.565 564.619 167.842 562.162 163.621 557.793C159.4 553.425 157.026 547.501 157.019 541.323V163.303C157.026 157.125 159.4 151.202 163.621 146.833C167.842 142.464 173.565 140.007 179.534 140H431.38C437.349 140.007 443.072 142.464 447.293 146.833C451.514 151.202 453.888 157.125 453.895 163.303V541.323C453.888 547.501 451.514 553.425 447.293 557.793C443.072 562.162 437.349 564.619 431.38 564.626V564.626Z" fill="#CACACA"/>
<path id="Vector_2" d="M431.823 549.758H179.09C177.25 549.756 175.486 548.999 174.185 547.652C172.884 546.305 172.152 544.479 172.15 542.575V162.051C172.152 160.147 172.884 158.321 174.185 156.974C175.486 155.628 177.25 154.87 179.09 154.868H431.823C433.663 154.87 435.427 155.628 436.728 156.974C438.03 158.321 438.761 160.147 438.764 162.051V542.575C438.761 544.479 438.03 546.305 436.728 547.652C435.427 548.999 433.663 549.756 431.823 549.758V549.758Z" fill="white"/>
<path id="Vector_3" d="M811.061 566H78.9391C78.69 566 78.4511 565.898 78.275 565.715C78.0989 565.533 78 565.286 78 565.028C78 564.77 78.0989 564.523 78.275 564.341C78.4511 564.159 78.69 564.056 78.9391 564.056H811.061C811.31 564.056 811.549 564.159 811.725 564.341C811.901 564.523 812 564.77 812 565.028C812 565.286 811.901 565.533 811.725 565.715C811.549 565.898 811.31 566 811.061 566Z" fill="#CACACA"/>
<path id="Vector_4" d="M425.741 255.722H537.633C543.032 255.722 548.271 257.623 552.488 261.113C556.705 264.603 559.649 269.475 560.837 274.926L617.374 534.479C617.99 537.31 618.001 540.246 617.406 543.082C616.81 545.918 615.622 548.585 613.925 550.895C612.229 553.206 610.064 555.104 607.584 556.457C605.103 557.81 602.367 558.585 599.566 558.728L484.54 564.594C478.381 564.908 472.321 562.892 467.493 558.922C462.664 554.952 459.396 549.299 458.298 543.018L426.227 359.512L420.161 324.8L411.208 273.577C410.825 271.383 410.914 269.129 411.469 266.974C412.024 264.82 413.031 262.819 414.419 261.114C415.807 259.408 417.541 258.041 419.498 257.109C421.455 256.177 423.587 255.703 425.741 255.722V255.722Z" fill="#3F3D56"/>
<path id="Vector_5" d="M522.903 261.317H535.964C539.715 261.317 543.353 262.645 546.274 265.08C549.196 267.515 551.225 270.911 552.024 274.704L606.292 532.139C606.604 533.621 606.604 535.156 606.291 536.638C605.978 538.12 605.36 539.514 604.478 540.726C603.597 541.938 602.473 542.939 601.183 543.661C599.894 544.382 598.469 544.807 597.006 544.906L482.352 552.683C479.118 552.903 475.918 551.882 473.365 549.815C470.811 547.749 469.082 544.781 468.507 541.48L422.2 275.395C421.901 273.673 421.97 271.904 422.403 270.212C422.836 268.521 423.622 266.948 424.707 265.606C425.791 264.263 427.147 263.183 428.679 262.442C430.21 261.701 431.881 261.317 433.571 261.317H445.962C447.161 261.317 448.327 261.726 449.279 262.481C450.231 263.236 450.915 264.295 451.227 265.494V265.494C451.502 266.552 452.107 267.486 452.947 268.153C453.788 268.819 454.817 269.181 455.876 269.181H514.698C516.771 269.181 518.768 268.371 520.289 266.913C521.81 265.455 522.744 263.457 522.903 261.317V261.317Z" fill="white"/>
</g>
<path id="Vector_6" d="M305.455 455.369C318.957 455.369 329.904 444.04 329.904 430.064C329.904 416.089 318.957 404.76 305.455 404.76C291.952 404.76 281.006 416.089 281.006 430.064C281.006 444.04 291.952 455.369 305.455 455.369Z" fill="#E4E4E4"/>
<path id="Vector_7" d="M320.761 381.495H290.148L271.666 287.924C271.192 283.038 271.711 278.103 273.192 273.438C274.672 268.772 277.081 264.48 280.263 260.837C283.444 257.194 287.328 254.281 291.664 252.287C296 250.292 300.691 249.261 305.436 249.258C310.18 249.255 314.873 250.281 319.211 252.27C323.549 254.259 327.436 257.167 330.622 260.806C333.808 264.445 336.221 268.735 337.707 273.398C339.193 278.062 339.718 282.996 339.249 287.883L320.761 381.495Z" fill="#E4E4E4"/>
<g id="Group 3">
<path id="Vector_8" d="M580.769 343.838C581.136 344.083 581.483 344.358 581.808 344.66L619.709 334.66L622.294 325.196L636.603 327.368L633.599 344.582C633.356 345.973 632.684 347.244 631.684 348.206C630.683 349.168 629.409 349.768 628.051 349.916L583.797 354.739C583.076 356.311 581.91 357.618 580.453 358.487C578.996 359.356 577.319 359.745 575.643 359.603C573.968 359.461 572.374 358.794 571.073 357.692C569.772 356.589 568.827 355.103 568.363 353.43C567.898 351.758 567.937 349.979 568.473 348.33C569.009 346.681 570.018 345.24 571.365 344.198C572.711 343.157 574.333 342.565 576.013 342.5C577.693 342.436 579.352 342.902 580.77 343.838H580.769Z" fill="#FFB6B6"/>
<path id="Vector_9" d="M639.161 335.958L629.397 344.676L615.737 356.864L609.704 324.914L609.073 321.592L608.576 318.955L622.417 294.001L633.956 294.687L634.744 294.736L634.76 294.916L634.941 296.589L637.308 318.612L637.363 319.143L639.161 335.958Z" fill="#3F3D56"/>
<path id="Vector_10" d="M575.343 554.458L565.674 554.457L561.073 515.856L575.344 515.857L575.343 554.458Z" fill="#FFB6B6"/>
<path id="Vector_11" d="M577.808 564.158L546.632 564.157V563.749C546.632 560.418 547.91 557.223 550.186 554.868C552.462 552.513 555.548 551.19 558.767 551.189H558.767L577.809 551.19L577.808 564.158Z" fill="#2F2E41"/>
<path id="Vector_12" d="M676.293 555.274L666.624 555.273L662.024 516.673L676.295 516.674L676.293 555.274Z" fill="#FFB6B6"/>
<path id="Vector_13" d="M678.759 564.975L647.582 564.973V564.565C647.582 561.234 648.861 558.04 651.136 555.684C653.412 553.329 656.499 552.006 659.717 552.006H659.718L678.759 552.006L678.759 564.975Z" fill="#2F2E41"/>
<path id="Vector_14" d="M684.021 538.275L657.995 542.357L620.131 409.726L579.916 543.173L550.735 539.091L588.591 383.997V371.753L593.718 353.386L593.181 348.415L589.451 313.65L587.834 298.573L587.729 297.599C587.641 296.782 587.851 295.96 588.316 295.293C588.782 294.627 589.47 294.163 590.248 293.993V293.993L602.393 291.349H622.244L633.956 294.687L634.76 294.916L635.123 295.022L634.942 296.589L632.197 320.408L632.047 321.715L629.397 344.677L628.814 349.713C651.685 366.855 652.474 383.997 652.474 383.997L684.021 538.275Z" fill="#2F2E41"/>
<path id="Vector_15" d="M609.92 281.021C620.618 281.021 629.29 272.045 629.29 260.973C629.29 249.9 620.618 240.924 609.92 240.924C599.221 240.924 590.549 249.9 590.549 260.973C590.549 272.045 599.221 281.021 609.92 281.021Z" fill="#FFB6B6"/>
<path id="Vector_16" d="M630.265 345.106L591.946 350.293L592.662 355.959L630.981 350.772L630.265 345.106Z" fill="#3F3D56"/>
<g id="Group" opacity="0.2">
<path id="Vector_17" opacity="0.2" d="M637.308 318.613C635.634 319.3 633.929 319.899 632.197 320.408C631.645 320.58 631.077 320.743 630.517 320.898C626.826 321.958 623.033 322.593 619.207 322.792C617.561 322.864 615.911 322.818 614.271 322.653C612.509 322.472 610.769 322.116 609.073 321.592C609.018 321.576 608.955 321.559 608.9 321.543C605.373 320.507 602.14 318.605 599.475 316C598.879 315.4 598.323 314.759 597.811 314.082C596.338 312.215 595.258 310.051 594.638 307.728C594.019 305.405 593.875 302.973 594.214 300.589C594.28 300.157 594.37 299.729 594.483 299.307C594.78 298.159 595.173 297.039 595.658 295.961C595.871 295.455 596.108 294.957 596.36 294.467L605.272 291.349H622.244L633.956 294.687L634.744 294.736L634.76 294.916L635.123 295.022L634.942 296.589L637.308 318.613Z" fill="black"/>
</g>
<path id="Vector_18" d="M595.076 244.374C591.454 243.915 587.478 244.24 584.655 246.633C581.831 249.027 580.92 254.002 583.593 256.574C585.96 258.851 589.661 258.315 592.831 258.963C595.562 259.596 598.008 261.16 599.779 263.403C601.55 265.646 602.542 268.439 602.597 271.335C602.55 279.64 594.849 285.929 593.466 294.11C592.522 299.693 594.797 305.569 598.731 309.513C602.664 313.457 608.071 315.588 613.519 316.166C618.967 316.743 624.476 315.861 629.77 314.413C635.087 312.958 640.321 310.894 644.782 307.566C649.243 304.237 652.9 299.545 654.332 294.05C655.765 288.554 654.736 282.254 651.045 278.034C646.819 273.203 639.787 271.541 636.131 266.234C632.033 260.285 633.55 251.814 630.233 245.364C628.018 241.058 623.825 238.121 619.356 236.574C614.886 235.027 610.113 234.721 605.402 234.571C602.926 234.493 600.374 234.466 598.067 235.401C595.76 236.335 593.732 238.464 593.613 241.025C593.493 243.586 595.076 244.374 595.076 244.374Z" fill="#2F2E41"/>
</g>
<path id="Vector_19" d="M569.029 305.457H538.416L519.934 211.886C519.459 207 519.979 202.065 521.459 197.399C522.94 192.734 525.349 188.441 528.53 184.798C531.712 181.155 535.596 178.243 539.931 176.248C544.267 174.254 548.959 173.222 553.703 173.219C558.448 173.216 563.14 174.242 567.478 176.231C571.816 178.221 575.704 181.128 578.889 184.767C582.075 188.406 584.489 192.696 585.975 197.36C587.461 202.023 587.986 206.958 587.517 211.844L569.029 305.457Z" fill="#6C63FF"/>
<path id="Vector_20" d="M553.722 379.331C567.225 379.331 578.171 368.001 578.171 354.026C578.171 340.05 567.225 328.721 553.722 328.721C540.219 328.721 529.273 340.05 529.273 354.026C529.273 368.001 540.219 379.331 553.722 379.331Z" fill="#6C63FF"/>
<g id="Group 4">
<path id="Vector_21" d="M540.547 352.001C540.914 352.246 541.261 352.521 541.585 352.823L579.486 342.823L582.072 333.359L596.381 335.531L593.377 352.745C593.134 354.136 592.462 355.407 591.461 356.369C590.461 357.331 589.186 357.931 587.828 358.079L543.575 362.902C542.854 364.474 541.687 365.781 540.231 366.65C538.774 367.519 537.096 367.908 535.421 367.766C533.745 367.624 532.151 366.957 530.851 365.855C529.55 364.752 528.605 363.266 528.14 361.593C527.676 359.921 527.714 358.142 528.25 356.493C528.787 354.844 529.795 353.403 531.142 352.361C532.489 351.32 534.11 350.728 535.79 350.663C537.47 350.599 539.13 351.065 540.547 352.001H540.547Z" fill="#FFB6B6"/>
<path id="Vector_22" d="M598.844 299.103L592.14 293.798C590.328 293.086 587.844 295.108 587.408 297.063L577.944 337.061L597.661 351.754L600.421 347.264L598.844 299.103Z" fill="#3F3D56"/>
</g>
<path id="FAKE NEWS DETECTOR" d="M227.473 289.805H217.822L216.047 300H210.035L214.465 274.406H231.111L230.285 279.17H219.668L218.648 285.059H228.299L227.473 289.805ZM240.955 295.219H232.781L230.514 300H223.887L237.439 274.406H243.1L247.828 300H241.57L240.955 295.219ZM235.031 290.455H240.34L239.215 281.631L235.031 290.455ZM260.186 290.543L257.057 293.479L255.914 300H249.902L254.332 274.406H260.361L258.445 285.357L260.941 282.316L267.586 274.406H275.391L264.773 285.99L270.662 300H263.789L260.186 290.543ZM289.752 289.154H280.348L279.275 295.254H290.402L289.576 300H272.438L276.867 274.406H294.041L293.215 279.17H282.07L281.121 284.566H290.543L289.752 289.154ZM230.795 342H224.977L218.859 325.846L216.047 342H210.035L214.465 316.406H220.336L226.436 332.561L229.23 316.406H235.242L230.795 342ZM252.064 331.154H242.66L241.588 337.254H252.715L251.889 342H234.75L239.18 316.406H256.354L255.527 321.17H244.383L243.434 326.566H252.855L252.064 331.154ZM275.338 332.385L280.682 316.406H286.764L277.482 342H271.26L270.223 327.498L264.703 342H258.48L257.197 316.406H263.051L263.402 332.314L269.273 316.406H274.389L275.338 332.385ZM299.086 335.074C299.344 333.75 298.629 332.725 296.941 331.998L294.059 330.803C290.016 328.986 288.094 326.514 288.293 323.385C288.375 321.955 288.867 320.684 289.77 319.57C290.672 318.445 291.92 317.572 293.514 316.951C295.107 316.33 296.848 316.031 298.734 316.055C301.266 316.102 303.299 316.84 304.834 318.27C306.381 319.699 307.143 321.615 307.119 324.018H301.143C301.178 323.033 300.967 322.248 300.51 321.662C300.064 321.064 299.326 320.754 298.295 320.73C297.287 320.707 296.396 320.941 295.623 321.434C294.85 321.926 294.393 322.588 294.252 323.42C294.029 324.592 294.896 325.553 296.854 326.303C298.822 327.053 300.252 327.697 301.143 328.236C303.943 329.912 305.256 332.174 305.08 335.021C304.986 336.498 304.512 337.793 303.656 338.906C302.801 340.02 301.611 340.881 300.088 341.49C298.576 342.1 296.877 342.393 294.99 342.369C293.607 342.346 292.324 342.129 291.141 341.719C289.957 341.309 288.943 340.711 288.1 339.926C286.389 338.344 285.568 336.264 285.639 333.686L291.668 333.703C291.598 335.016 291.85 336.012 292.424 336.691C292.998 337.359 293.965 337.693 295.324 337.693C296.332 337.693 297.17 337.465 297.838 337.008C298.518 336.539 298.934 335.895 299.086 335.074ZM210.035 384L214.465 358.406L221.988 358.424C224.203 358.424 226.137 359.01 227.789 360.182C229.441 361.342 230.613 362.93 231.305 364.945C231.902 366.715 232.084 368.625 231.85 370.676L231.727 371.748C231.41 374.045 230.648 376.125 229.441 377.988C228.234 379.852 226.682 381.316 224.783 382.383C222.885 383.438 220.834 383.977 218.631 384H210.035ZM219.668 363.17L216.873 379.254L218.631 379.271C220.693 379.271 222.346 378.475 223.588 376.881C224.842 375.287 225.586 372.85 225.82 369.568L225.855 368.988C225.938 367.113 225.645 365.689 224.977 364.717C224.309 363.744 223.307 363.234 221.971 363.188L219.668 363.17ZM250.096 373.154H240.691L239.619 379.254H250.746L249.92 384H232.781L237.211 358.406H254.385L253.559 363.17H242.414L241.465 368.566H250.887L250.096 373.154ZM275.988 363.17H268.535L264.932 384H258.902L262.523 363.17H255.193L256.037 358.406H276.814L275.988 363.17ZM292.354 373.154H282.949L281.877 379.254H293.004L292.178 384H275.039L279.469 358.406H296.643L295.816 363.17H284.672L283.723 368.566H293.145L292.354 373.154ZM316.207 375.281C316.055 377.074 315.463 378.668 314.432 380.062C313.412 381.457 312.064 382.529 310.389 383.279C308.725 384.029 306.92 384.387 304.975 384.352C302.303 384.293 300.199 383.432 298.664 381.768C297.129 380.104 296.291 377.848 296.15 375C296.045 373.102 296.25 371.033 296.766 368.795C297.293 366.557 298.143 364.611 299.314 362.959C300.498 361.295 301.887 360.053 303.48 359.232C305.086 358.4 306.838 358.002 308.736 358.037C311.525 358.084 313.729 358.922 315.346 360.551C316.975 362.18 317.859 364.424 318 367.283L312.006 367.266C312.029 365.707 311.748 364.594 311.162 363.926C310.576 363.258 309.65 362.9 308.385 362.854C305.221 362.748 303.293 365.209 302.602 370.236C302.285 372.51 302.127 374.133 302.127 375.105C302.068 377.988 303.135 379.471 305.326 379.553C306.744 379.6 307.875 379.254 308.719 378.516C309.562 377.766 310.102 376.711 310.336 375.352L316.207 375.281ZM340.465 363.17H333.012L329.408 384H323.379L327 363.17H319.67L320.514 358.406H341.291L340.465 363.17ZM349.588 384.352C346.928 384.293 344.795 383.414 343.189 381.715C341.584 380.016 340.676 377.742 340.465 374.895C340.348 373.488 340.459 371.836 340.799 369.938C341.139 368.027 341.742 366.27 342.609 364.664C343.477 363.059 344.561 361.723 345.861 360.656C348.041 358.863 350.549 357.996 353.385 358.055C355.131 358.09 356.654 358.494 357.955 359.268C359.268 360.029 360.316 361.131 361.102 362.572C361.887 364.014 362.344 365.654 362.473 367.494C362.566 368.795 362.484 370.277 362.227 371.941C361.98 373.594 361.518 375.176 360.838 376.688C360.17 378.188 359.303 379.512 358.236 380.66C357.17 381.809 355.91 382.723 354.457 383.402C353.016 384.07 351.393 384.387 349.588 384.352ZM356.443 367.441C356.326 364.512 355.189 362.988 353.033 362.871C351.369 362.789 349.992 363.451 348.902 364.857C347.812 366.252 347.092 368.314 346.74 371.045C346.518 372.732 346.436 374.039 346.494 374.965C346.611 377.941 347.76 379.471 349.939 379.553C351.369 379.623 352.6 379.113 353.631 378.023C354.662 376.922 355.406 375.328 355.863 373.242C356.32 371.145 356.514 369.211 356.443 367.441ZM374.25 374.965H370.91L369.328 384H363.316L367.746 358.406L376.781 358.424C379.676 358.424 381.902 359.104 383.461 360.463C385.031 361.811 385.734 363.656 385.57 366C385.441 367.852 384.908 369.387 383.971 370.605C383.033 371.812 381.721 372.768 380.033 373.471L383.479 383.701V384H377.062L374.25 374.965ZM371.719 370.201L375.234 370.236C376.195 370.236 377.027 370.002 377.73 369.533C378.445 369.064 378.955 368.426 379.26 367.617C379.564 366.797 379.652 366.006 379.523 365.244C379.289 363.943 378.457 363.258 377.027 363.188L372.949 363.17L371.719 370.201Z" fill="#FF0000"/>
</g>
</svg>
